<?xml version="1.0" encoding="UTF-8"?>
<svg id="Capa_1" data-name="Capa 1" xmlns="http://www.w3.org/2000/svg" viewBox="0 0 1080 1080">
  <defs>
    <style>
      .cls-1 {
        fill: #fff;
      }

      .cls-2 {
        fill: #11488e;
      }
    </style>
  </defs>
  <circle class="cls-1" cx="540" cy="540.65" r="540"/>
  <g>
    <path class="cls-2" d="M618.58,522.37c1.65-5.31,30.47-10.92,36.25-14.92,10.21-7.07,12.73-25.29,27.25-33.82,29.12-17.09,125.1-35.9,160.07-37.99,15.43-.92,40.58-4.3,45.47,14.08-65.76,4.75-128.08,23.65-187.11,52.24-27.95,13.53-54.08,30.65-81.93,44.33v-23.93Z"/>
    <path class="cls-2" d="M603.73,523.2v31.36l-57.77,33.01v-42.91c18.88-8.95,35.41-22.77,57.77-21.46Z"/>
    <path class="cls-2" d="M646.17,497.96c-1.59,1.17-34,12.55-37.08,13.26-6.68,1.52-17.23-.32-25.23,1.18-12.55,2.35-28.47,19.11-39.52,16.66-3.55-.79-20.3-8.32-20.82-11.55.59-9.38,3.5-16.46,7.93-24.52,2.22-4.04,7.77-9.25,8.84-12.62,2.79-8.75-2.74-16.12,5.61-24.1,7.19-6.87,18.23-5.2,26.37-10.86l.09-8.87c3.87-1.48,23.27-7.38,24.76-1.56l-4.93,10.62,24.73,6.61c-1.74-15.14,18.53-12.83,22.34-16.46,4.87-4.65-.89-13.91-5.8-16.54l-.83,8.24-17.32-16.49c-3.12,9.05,4.44,11.31,6.35,15.92,3,7.25-6.22,2.4-8.81-1.09-2.84-3.83-3.3-10.98-6.31-14.33-1.98-2.21-19.54-11.54-20.95-10.38,1.79,7.58,24.49,18.17,19,26.42-4.78,4.57-7.43-4.66-10.81-7.39-4.67-3.77-11.97-4.98-17.29-7.47-1.52,4.31,5,9.31,7.44,12.37l-4.98,1.73c-4.41-1.88-6.62-17.72-14.81-17.4,2.2,6.18-3.17,10.96-3.47,15.65-.56,8.9,8.56,20.67-7.25,22.34-21.43,2.27-18.9-14.99-27.26-28.89,4.84-5.71,12.06-.33,18.15-.87-.38-13.07-19.99-10.81-16.5-26.4-1.63-1.74-19.05,13.3-21.11-4.49-.38-3.26,1.35-20.93,4.01-21.78,10.9-.52,16.63,11.41,26.49,14.5l3.6-2.51-1.6-13.58c-3.73-3.15-19.12,7.36-26.02-6.18-2.84-5.56-1.15-10.11-2.6-15.56-1.26-4.76-12.89-26.42-6.42-28.04,6.77-1.16,12.45,1.45,18.62,2.65,1.7.33,5.42,2.15,5.03-.91-21.25-12.38-44.35-22.22-68.94-25.97-18.14-2.77-85.63-5.23-99.32,5.4-3.62,2.81-7.13,10.93-13.25,13.13,8.75,8.08,20.41,7.08,31.26,9.03.18-1.89,0-4.44,1.66-5.74,4.22-3.3,53.81-3.39,61.95-2.47,24.49,2.76,27.53,22.71,8.96,37.03-4.24,3.27-16.76,8.31-19.23,11.29-4.52,5.45-1.82,15.87-16.55,9.84-13.43-5.5-6.46-25.21-9.08-35.47-1.5-5.88-11.08-16.93-16.24-8.42,4.34,11.02,7.01,14.71,2.07,26.47-4.33,10.32-19.29,15.41-26.44,5.98l1.27-10.26c-4.22-2.23-12.42-1.88-16.28.77-1.83,1.26-2.17,4.7-4.49,5.5-4.66,1.6-7.97-2.9-16.88,1.22-17.07,7.9-2.73,20.72-3.47,33.62,9.3-6.55,19-13.54,26.4-22.28,2.79-3.29,3.38-10.34,8.81-8.92,4.7,1.23,4.99,11.85,10.05,14.81,3.61,2.11,7.6.9,8.95,1.77.8.51,1.45,5.83,2.84,7.89,4.73,7.04,9.08,8.7,8.95,19.92-2.53,2.15-12.12-4.69-11.54.82,3.68,2.2,6.57,5.76,10.03,8.14,2.99,2.05,10.42,1.33,8.11,6.73-1.74,4.05-25.76,4.74-26.47-3.3l5.02-9.05c-7.62-.73-18.69.11-18.06,9.8,4.25,1.51,8.51,3.07,12.76,4.62,1.19.44,5.22-.13,3.64,2.88-1.46,2.78-17.55,6.91-21.13,7.09-6.76.33-10.42-2.64-18.21-.19-1.13.35-16.69,11.06-17.67,12.02-3.51,3.46-3.02,9.3-7.26,14.2-8.24,9.53-22.63,6.26-24.51,21.74-.58,4.81,4.67,16.11-2.39,19.15-14.8,6.36-1.33-16.47-8.52-22.16-4.99-3.05-10.95-.61-16.33-1.82-3.64-.82-5.5-4.49-10.24-4.78-14.4-.87-24.33,36.59-11.99,43.52,7.54,4.23,5.77-1.8,8.52-3.87,4.51-3.4,12.36-1.2,17.5.14.99,6.1-5.27,8.1-8,12.6-8.71,14.36,5.65,12.19,7.76,19.94,1.83,6.69-11.35,18.9,6.76,24.47,17,5.23,21.66-4.17,33.78-2.5,4.62.64,9.02,4.65,13.81,6.07,7.32,2.16,15.84.97,21.91,2.85,3.86,1.19,12.58,10.76,17.53,13.83,7.61,4.72,17.66,6.78,24.45,11.86,8.94,6.68,11.82,18.87,20.75,25.46,6.4,4.72,13.72,5.73,21.13,7.75l.2,9.67c-29.99,1.96-32.78,14.51-29.51,41.92,1.03,8.66,5.81,14.53,8.06,22.46l-9.68.23-1.88,6.36,23.11,4.14c-15.36,6.07-12.08,38.83-32.99,30.54l3.07,6.09c-5.72,15.2-31.07.31-24.22,22.49,1.25,4.06,8.25,5.02,9.59,9.37-30.96,5.42-41.29-17-47.38-42.56-3.22-13.52-3.05-27.77-5.83-40.39-2.44-11.08-19.84-20.59-27.63-30.14-3.1-3.8-23.79-34.18-24.44-36.69-.55-2.1.98-20.12,1.62-22.36,1.17-4.1,9.43-7.49,10.88-13.88.7-3.09,1.04-16.79-.37-18.74-15.35-1.44-19.01-8.03-26-20.22-2.07-3.61-2.12-7.99-4.63-11.88-6.06-9.39-22.61-22.21-28.81-30.61-9.35-12.67-5.76-36.38-4.24-51.06l-4.95,13.19c-2.43-.47-4.73-7.41-4.91-9.22-.63-6.37,8.21-42.1,10.69-50.21,6.65-21.74,21.23-38.1,37.11-53.67l19.83-25.54c-92.44,65.5-122.18,187.59-84.19,292.99,61.92,171.77,286.59,224.4,415.14,93.22,1.97-2.49-7.56-3.24-8.27-3.29-21.53-1.53-44.07.06-65.8-3.52l-42.29-8.02,333.38-18.18-2.44-3.3c-18.2-.46-36.37-1-54.56-1.58-84.51-2.68-162.13,8.75-245.87,13.12-31.85,1.66-63.92,1.43-95.71,2.52-8.81-2.47-19.39-40.35-14.92-47.13,149.21-35.38,266.9-148.44,416.8-180.68,29.16-6.27,75.14-14.24,103.66-6.24,7.09,1.99,13.33,4.1,13.31,12.87-.02,9.53-42.54,67.64-50.61,81.19-13.08,21.96-45.08,80.45-37.94,104.97,4.17,14.31,51.18,16.01,64,26.78,2.02,1.69,2.08,1.54,0,3.24-9.38,7.72-37,13.91-49.47,16.55-75.3,15.95-150.11,12.83-226.62,11.05-88.04,100.59-235.3,127.82-352.75,61.59-178.89-100.89-188.94-363.72-17.99-478.53,155.96-104.74,366.25-26.76,423.82,148.46-12.01,5.34-20.13,10.45-28.53,20.72-3.6,4.4-12.04,20.57-14.64,22.49ZM550.9,363.1c.4-6.54-4.83-11.59-9.87-14.85l3.3,11.55-4.96,1.64,11.53,1.67Z"/>
    <path class="cls-2" d="M440.33,555.38l16.53-6.58c3.59-2.99.08-10.26,2.42-14.08,1.34-2.19,15.34-8.62,18.75-10.13l2.15-17.67,10.31-.33,2.87,21.33,41.04,10.94c-11.62,10.16-31.91,15.58-43.49,24.18-1.71,1.27-6.02,5.54-6.02,7.18v26.41c0,.29,2.23,2.6,3.3,2.48v-28.06c17.59-4.76,32.01-18.08,51.17-14.85v33.84c-16.37,11.11-36.59,19.81-55,27.52-5.69,2.38-43.7,18.15-45.67,16.22.88-6.44-1.44-16.06.33-21.95.83-2.75,4.68-4.5,6.07-7.14,3.82-7.29,1.03-17.36,1.87-25.39h-6.62s0-23.92,0-23.92Z"/>
    <path class="cls-2" d="M318.19,534.74l-19.91-.7c-3.31-2.28,2.19-9.02-7.76-12.03-2.74-.83-6.66.12-8.71-1.22-1.65-1.08-1.61-5.54-3.95-7.61-3.33-2.95-13.18-3.25-14.14-10.59,9.46-8.34,10.83-.8,17.61,3.82,8.94,6.09,21.34,11.95,29.43,18.44,1.35,1.08,9.26,8.34,7.42,9.89Z"/>
    <path class="cls-2" d="M468.02,346.92c16.75-2.28,23.85,12.3,7.77,12.98-12.27.52-24.08-10.76-7.77-12.98Z"/>
  </g>
</svg>