<?xml version="1.0" encoding="UTF-8"?>
<svg id="Capa_1" data-name="Capa 1" xmlns="http://www.w3.org/2000/svg" viewBox="0 0 500 500">
  <defs>
    <style>
      .cls-1 {
        fill: #11488e;
      }
    </style>
  </defs>
  <g>
    <path class="cls-1" d="M88.05,434.25c-1.12-3.11-1.02-8.4,3.54-6.53,4.53,1.86,1.04,6.36-2.24,7.08l-1.3-.54Z"/>
    <path class="cls-1" d="M273.55,444.73c.8.77,8.72-2.05,8.14,1.3-.5,2.83-9.93,2.35-11.44,3.85-2.16,4.12-4.29,8.6-3.78,13.38,1.12,1.1,11.12-4.42,12.02-5.69,1.29-1.8,1.66-10.56,5.13-10.65,1.14.17,2.99,1.18,3,2.42.02,2.04-6.09,11.6-4.35,13.36,2.54.13,6.11-2.15,7.65-4.06s1.75-4.23,3.34-6.47c2.49-3.5,10.53-10,13.77-4.67,3.2,5.27-6.48,12.11-11.66,10.32-2.59,9.5,10.92,3.12,13.61-.28,1.49-1.88,4.76-12.96,6.3-13.33,5.21,1.48,2.38,4.46,1.86,8.13,4.9-5.44,12.02-8.22,11.44,2.18,2.29-1.78,10.13-9.03,12.24-4.35,1.25,2.76-2.51,8.51-1.35,11.98,1.57,1.55,8.42-3.3,9.51-4.93,1.44-2.16,5.33-14.52,6.1-14.71,1.49-.37,3.52.4,4.58,1.5l-2.75,7.79c2.82-2.45,9.54-9.37,13.01-4.57,5.32,7.37-7.56,19.61-13.55,16.81-3.53-1.65,3-3.63,4.53-4.71,2.97-2.1,5.88-5.91,5.81-9.71-5.13,1.49-10.27,6.57-13.3,10.94s-10.15,19.16-9.61,24.21c.19,1.78,1.61,3.24,1.06,5.11-2.15,1.01-4.64-.1-5.53-2.27-2.4-5.88,5.13-19.13,7.21-24.92-8.43,7.16-13.75-.56-10.35-9.26-2.67.26-8.9,10.62-9.62,10.84-6.32,1.97-1.59-10.98-2.63-13.56-1.95,1.48-3.83,3.06-5.46,4.89-1.89,2.14-6.21,9.99-8.29,10.29-2.34.33-2.5-2.57-1.79-4.29-5.44,4.31-12.68,7.02-17.17,0-4.75,3.8-10.96,7.28-13.61-.53-3.24,3.92-11.31,8.67-14.98,2.99-3.19-4.93,2.84-13.03,1.94-14.43-.27-.43-1.36-.7-1.88-1.44-2.35-3.39,3.61-2.71,4.7-3.61l6.93-12.81c8.71,2.73-.55,7.71-.79,12.95ZM297.52,453.99c2.76-.39,5.89-2.36,5.99-5.44-.43-.48-5.65,4.52-5.99,5.44Z"/>
    <path class="cls-1" d="M180.94,443.1c1.67-.31,6.52-1.39,7.62-.29l.52,1.6c-.56,1.86-9.37,2.85-11.3,3.15-.52.34-3.63,8.91-3.78,10.12-.13,1.06-.57,2.93.76,3.35.96.2,1.8-.16,2.67-.48.7-.25,7.92-4.21,8.27-4.52.39-.35,1.55-4,2.22-5.14,2.2-3.72,7.82-9.36,12.11-5.37,3.37,3.14-.03,8.08,8.9,4.69,3.37,4.36-4.44,4.31-7.28,3.23-1.05,7.58-12.59,16.16-16.07,5.45-3.53,3.86-11.91,8.88-15.56,2.48-2.58-4.53,2.78-10.79,2.6-13.11-.14-1.81-7.28-3.63,2.75-5.85,2.24-2.74,3.81-9.17,5.64-11.52,1.71-2.21,4.08.15,4.83,2.1l-4.89,10.09ZM189.65,460.53c2.76.35,10.27-7.77,7.65-9.56-3.69-2.52-8.29,6.37-7.65,9.56Z"/>
    <path class="cls-1" d="M130.82,459.44c5.3-3.57,9.14-8.9,13.3-13.66,8.5-3.37.35,12.07,1.95,13.65,2.95.65,4.4-3.16,6.8-3.32,3.43-.23,4.1,3.48,7.36,3.32-1.18-4.33-5.45-10.5-3.2-14.91,3.35-6.54,13.04-2,11.84,4.75-.58,1.74-3.62.73-4.23-.56l.49-3.44c-7.92.15-2.57,7.21-1.48,11.56,2.95,11.7-4.77,7.82-10.31,2.66-6.77,5.37-11.52,4.44-11.64-4.96-1.13.33-.59,1.3-1.3,2.18-2.45,3.05-10.56,9.68-12.98,3.67-1.92-4.76,4.07-13.2,4.92-18.23,1.48-3.11,5.39.3,5.03,2.8l-6.54,14.48Z"/>
    <path class="cls-1" d="M101.03,463.07c-1.58-1.48-6.3-10.09-2.1-9.65,1.68.18,1.73,3.36,2.75,4.91,2.44,3.71,6.85,3.3,10.06.86,5.71-4.35,12.78-25.08,14.43-32.42.4-1.79.86-3.6.81-5.45-5.86-.75-10.59,1.12-16,2.77-.69-.14-1.15-2.61-.66-3.34.83-1.21,11.72-2.97,13.66-2.93,10.68.19,9.37,5.06,6.82,13.05-2.44,7.65-10.4,27.45-16.4,32.09-4.04,3.13-9.43,3.83-13.38.13Z"/>
    <path class="cls-1" d="M241.26,448.14c2.62,2.68-5.7,9.57-3.41,13.5.74.77,2.46-.27,3.22-.63,2.51-1.2,6.2-5.5,8.51-3.47.62,2.22-7.69,7.38-9.66,7.78-4.73.95-6.86-3.4-6.14-7.51l-7.05,6.28c-6.17,1.58-7.87-3.22-5.57-8.29,1.25-2.75,6.8-9.21,9.74-9.87,2.66-.59,8.43.23,10.36,2.2ZM235.41,449.1c-3.67-1.81-12.19,11.21-11.44,11.98,1.02.24,1.29-.58,1.91-1.09,3.67-3.04,6.49-7.26,9.53-10.89Z"/>
    <path class="cls-1" d="M413.95,416.47c3.29-.93,4.46,2.54,3.71,5.39-1.22,4.63-6.37,12.72-8.55,17.59-1.55,3.46-3.42,10.84-5.11,13.42-1.48,2.25-5.04,2.41-5.09-.78-.01-.96,1.17-3.73,1.57-4.92,2.52-7.56,7.68-21.02,11.35-27.88.48-.9,1.02-2.51,2.12-2.82Z"/>
    <path class="cls-1" d="M388.51,453.99c-.93,5.57-7.69,13.75-13.84,10.29-6.85-3.85,2.46-21.48,10.54-18.7,3.12,1.07,2.87,5.59,4.77,6.15,2.78.91,6.67-3.93,7.19.8-1.86,2.92-5.82,2.17-8.65,1.46ZM376.52,461.62c3.28-.72,6.4-4.28,7.83-7.15.31-.62,1.2-1.91.35-2.4-5-2.88-8.34,5.68-8.18,9.54Z"/>
    <path class="cls-1" d="M96.33,438.26c.46-.12.85-.09,1.24.19l.95,1.1c-.16,1.11-1.45,2.18-1.74,3.04-.26.81.18,1.61-.11,2.54-2.44,7.7-6.08,19.76-9.17,26.84-.76,1.74-1.54,2.62-3.56,1.96-3.25-1.07-1.3-4.29-.53-6.6,2.19-6.56,7.8-21.45,11.05-27.09.39-.68,1.11-1.79,1.88-1.98Z"/>
    <path class="cls-1" d="M288.12,437.23c.97-.19,1.95-.35,2.87.14,3.62,2.18-5.56,10.23-7,5.34-.71-2.42,1.87-5.03,4.12-5.48Z"/>
  </g>
  <g>
    <polygon class="cls-1" points="207.93 9.78 207.93 95.25 190.83 95.25 164.74 43.96 164.74 95.25 148.55 95.25 148.55 10.68 165.19 10.68 192.63 61.06 192.63 10.68 207.93 9.78"/>
    <path class="cls-1" d="M217.82,95.25l22.93-84.58,21.51-.94,23.94,85.52h-17.99l-5.05-18.05-23.65.15-4.59,17.9h-17.09ZM259.21,61.96l-7.65-33.3-7.65,33.3h15.29Z"/>
    <path class="cls-1" d="M71.18,96.14L94.51,11.07l21.56-.31,23.48,84.48h-17.99l-4.62-16.98-23.62-.17-5.5,18.05h-16.64ZM113.46,62.86l-8.55-33.3-7.65,33.3h16.19Z"/>
    <polygon class="cls-1" points="328.03 9.78 344.22 75.46 361.32 9.78 377.96 9.78 354.48 95.16 334.43 95.3 311.39 9.78 328.03 9.78"/>
    <path class="cls-1" d="M385.94,105.28l11.72,43.32-8.29-.29-2.63-8.94-12.47-.4-1.44,8.88-8.87.76,11.34-42.67,10.65-.65ZM384.59,131.4c-1.43-4.59-2.02-9.54-3.41-14.13-.28-.92-.05-2.14-1.4-2.38-.25,5.59-1.88,11.15-3.45,16.51h8.26Z"/>
    <path class="cls-1" d="M427.95,115.57l-7.57,1.39c.73-6.98-11.51-6.68-10.33.3.88,5.22,17.12,6.15,18.54,15.22,3.02,19.2-24.42,22.65-27.45,5.16l6.54-1.95c1.36.25.8,6.57,7.53,6.08,3.9-.29,6.53-3.81,4.81-7.6-1.79-3.95-16.44-4.71-18.05-14.28-3-17.78,23.52-21.2,25.99-4.31Z"/>
    <path class="cls-1" d="M356.83,108.25c.97,1.04,3.94,6.35,3,7.33l-6.85,1.37c-1.78-9.73-15.66-3.06-8.27,3.08,5.3,4.4,16.46,4.11,17.2,14.5,1.24,17.58-26,19.62-28.22,3.11l7.55-2.1c-.18,8.2,13.53,8.13,12.41.38-.74-5.16-14.95-6.35-17.74-13.28-5.71-14.19,11.8-24.14,20.93-14.39Z"/>
  </g>
  <g>
    <path class="cls-1" d="M290.2,250.98c.84-2.71,15.59-5.59,18.54-7.63,5.22-3.62,6.51-12.94,13.94-17.3,14.9-8.74,64-18.37,81.89-19.43,7.89-.47,20.76-2.2,23.26,7.2-33.64,2.43-65.52,12.1-95.72,26.72-14.3,6.92-27.66,15.68-41.91,22.68v-12.24Z"/>
    <path class="cls-1" d="M282.6,251.41v16.04l-29.55,16.89v-21.95c9.66-4.58,18.11-11.65,29.55-10.98Z"/>
    <path class="cls-1" d="M304.31,238.5c-.81.6-17.39,6.42-18.97,6.78-3.42.78-8.82-.16-12.91.6-6.42,1.2-14.57,9.78-20.22,8.52-1.82-.4-10.38-4.26-10.65-5.91.3-4.8,1.79-8.42,4.06-12.54,1.14-2.06,3.97-4.73,4.52-6.45,1.43-4.48-1.4-8.25,2.87-12.33,3.68-3.51,9.32-2.66,13.49-5.56l.05-4.54c1.98-.76,11.9-3.78,12.66-.8l-2.52,5.43,12.65,3.38c-.89-7.75,9.48-6.56,11.43-8.42,2.49-2.38-.45-7.12-2.97-8.46l-.43,4.22-8.86-8.44c-1.59,4.63,2.27,5.78,3.25,8.14,1.53,3.71-3.18,1.23-4.51-.56-1.45-1.96-1.69-5.62-3.23-7.33-1.01-1.13-10-5.9-10.72-5.31.92,3.88,12.53,9.29,9.72,13.51-2.45,2.34-3.8-2.38-5.53-3.78-2.39-1.93-6.12-2.55-8.85-3.82-.78,2.2,2.56,4.76,3.81,6.33l-2.55.88c-2.25-.96-3.39-9.07-7.58-8.9,1.12,3.16-1.62,5.61-1.77,8.01-.29,4.55,4.38,10.57-3.71,11.43-10.96,1.16-9.67-7.67-13.94-14.78,2.48-2.92,6.17-.17,9.29-.44-.19-6.68-10.22-5.53-8.44-13.51-.83-.89-9.75,6.8-10.8-2.3-.19-1.67.69-10.71,2.05-11.14,5.58-.27,8.51,5.83,13.55,7.42l1.84-1.28-.82-6.95c-1.91-1.61-9.78,3.77-13.31-3.16-1.45-2.85-.59-5.17-1.33-7.96-.65-2.43-6.59-13.52-3.28-14.35,3.46-.59,6.37.74,9.53,1.35.87.17,2.77,1.1,2.57-.46-10.87-6.33-22.69-11.37-35.27-13.29-9.28-1.42-43.81-2.67-50.81,2.76-1.85,1.44-3.65,5.59-6.78,6.71,4.48,4.13,10.44,3.62,15.99,4.62.09-.97,0-2.27.85-2.94,2.16-1.69,27.52-1.73,31.69-1.26,12.53,1.41,14.08,11.62,4.59,18.94-2.17,1.67-8.57,4.25-9.84,5.77-2.31,2.79-.93,8.12-8.47,5.03-6.87-2.81-3.3-12.9-4.64-18.14-.77-3.01-5.67-8.66-8.31-4.31,2.22,5.64,3.58,7.52,1.06,13.54-2.22,5.28-9.87,7.88-13.53,3.06l.65-5.25c-2.16-1.14-6.35-.96-8.33.4-.94.64-1.11,2.41-2.3,2.81-2.39.82-4.08-1.49-8.63.62-8.73,4.04-1.4,10.6-1.77,17.2,4.76-3.35,9.72-6.93,13.5-11.4,1.43-1.68,1.73-5.29,4.51-4.56,2.4.63,2.55,6.06,5.14,7.57,1.85,1.08,3.89.46,4.58.9.41.26.74,2.98,1.45,4.04,2.42,3.6,4.64,4.45,4.58,10.19-1.3,1.1-6.2-2.4-5.9.42,1.88,1.13,3.36,2.95,5.13,4.16,1.53,1.05,5.33.68,4.15,3.44-.89,2.07-13.18,2.43-13.54-1.69l2.57-4.63c-3.9-.38-9.56.05-9.24,5.01,2.17.77,4.35,1.57,6.53,2.36.61.22,2.67-.07,1.86,1.47-.74,1.42-8.98,3.54-10.81,3.63-3.46.17-5.33-1.35-9.31-.09-.58.18-8.54,5.66-9.04,6.15-1.79,1.77-1.54,4.76-3.71,7.26-4.22,4.87-11.58,3.2-12.54,11.12-.3,2.46,2.39,8.24-1.22,9.8-7.57,3.25-.68-8.43-4.36-11.34-2.55-1.56-5.6-.31-8.36-.93-1.86-.42-2.82-2.3-5.24-2.44-7.37-.44-12.45,18.72-6.13,22.26,3.86,2.16,2.95-.92,4.36-1.98,2.31-1.74,6.32-.61,8.95.07.5,3.12-2.7,4.14-4.09,6.44-4.46,7.35,2.89,6.24,3.97,10.2.93,3.42-5.8,9.67,3.46,12.52,8.7,2.68,11.08-2.13,17.28-1.28,2.36.33,4.61,2.38,7.06,3.1,3.74,1.11,8.1.5,11.21,1.46,1.98.61,6.43,5.5,8.97,7.08,3.89,2.42,9.03,3.47,12.51,6.07,4.57,3.42,6.05,9.65,10.62,13.03,3.27,2.41,7.02,2.93,10.81,3.97l.1,4.95c-15.34,1-16.77,7.42-15.1,21.44.53,4.43,2.97,7.43,4.12,11.49l-4.95.12-.96,3.25,11.82,2.12c-7.86,3.1-6.18,19.87-16.87,15.62l1.57,3.11c-2.93,7.78-15.89.16-12.39,11.5.64,2.08,4.22,2.57,4.9,4.79-15.84,2.77-21.12-8.7-24.24-21.77-1.65-6.92-1.56-14.2-2.98-20.66-1.25-5.67-10.15-10.53-14.13-15.42-1.59-1.95-12.17-17.48-12.5-18.77-.28-1.08.5-10.29.83-11.44.6-2.1,4.83-3.83,5.56-7.1.36-1.58.53-8.59-.19-9.59-7.85-.74-9.73-4.11-13.3-10.34-1.06-1.85-1.09-4.09-2.37-6.08-3.1-4.8-11.57-11.36-14.74-15.66-4.78-6.48-2.94-18.61-2.17-26.12l-2.53,6.75c-1.24-.24-2.42-3.79-2.51-4.71-.32-3.26,4.2-21.54,5.47-25.68,3.4-11.12,10.86-19.49,18.98-27.45l10.15-13.06c-47.29,33.51-62.5,95.97-43.07,149.88,31.67,87.87,146.61,114.79,212.37,47.69,1.01-1.28-3.87-1.66-4.23-1.68-11.01-.78-22.54.03-33.66-1.8l-21.63-4.11,170.54-9.3-1.25-1.69c-9.31-.23-18.6-.51-27.91-.81-43.23-1.37-82.94,4.48-125.78,6.71-16.29.85-32.7.73-48.96,1.29-4.51-1.26-9.92-20.64-7.63-24.11,76.33-18.1,136.53-75.94,213.21-92.43,14.92-3.21,38.44-7.28,53.03-3.19,3.63,1.02,6.82,2.1,6.81,6.58,0,4.87-21.76,34.6-25.89,41.53-6.69,11.23-23.06,41.15-19.41,53.7,2.13,7.32,26.18,8.19,32.74,13.7,1.03.87,1.06.79,0,1.66-4.8,3.95-18.93,7.12-25.31,8.47-38.52,8.16-76.79,6.56-115.93,5.65-45.04,51.46-120.37,65.39-180.45,31.5-91.51-51.61-96.66-186.06-9.2-244.8,79.78-53.58,187.36-13.69,216.81,75.94-6.14,2.73-10.3,5.35-14.59,10.6-1.84,2.25-6.16,10.52-7.49,11.5ZM255.57,169.51c.21-3.35-2.47-5.93-5.05-7.6l1.69,5.91-2.54.84,5.9.85Z"/>
    <path class="cls-1" d="M199.01,267.87l8.46-3.36c1.84-1.53.04-5.25,1.24-7.2.69-1.12,7.85-4.41,9.59-5.18l1.1-9.04,5.27-.17,1.47,10.91,20.99,5.6c-5.94,5.2-16.33,7.97-22.25,12.37-.88.65-3.08,2.83-3.08,3.68v13.51c0,.15,1.14,1.33,1.69,1.27v-14.35c9-2.43,16.38-9.25,26.17-7.6v17.31c-8.37,5.69-18.72,10.14-28.14,14.08-2.91,1.22-22.36,9.28-23.36,8.3.45-3.3-.74-8.22.17-11.23.42-1.41,2.4-2.3,3.1-3.65,1.95-3.73.53-8.88.95-12.99h-3.38s0-12.24,0-12.24Z"/>
    <path class="cls-1" d="M136.53,257.31l-10.19-.36c-1.69-1.17,1.12-4.61-3.97-6.15-1.4-.42-3.4.06-4.45-.63-.85-.55-.82-2.83-2.02-3.89-1.71-1.51-6.74-1.66-7.23-5.42,4.84-4.27,5.54-.41,9.01,1.95,4.57,3.11,10.92,6.11,15.05,9.43.69.55,4.74,4.27,3.8,5.06Z"/>
    <path class="cls-1" d="M213.18,161.23c8.57-1.17,12.2,6.29,3.97,6.64-6.28.27-12.32-5.5-3.97-6.64Z"/>
  </g>
</svg>