<?xml version="1.0" encoding="UTF-8"?>
<svg id="Capa_1" data-name="Capa 1" xmlns="http://www.w3.org/2000/svg" viewBox="0 0 1393.65 341.22">
  <defs>
    <style>
      .cls-1 {
        fill: #11488e;
      }
    </style>
  </defs>
  <g>
    <polygon class="cls-1" points="822.4 72.71 822.4 266.59 783.62 266.59 724.43 150.26 724.43 266.59 687.7 266.59 687.7 74.75 725.45 74.75 787.7 189.04 787.7 74.75 822.4 72.71"/>
    <path class="cls-1" d="M844.85,266.59l52.01-191.88,48.79-2.13,54.31,194.01h-40.82l-11.45-40.95-53.66.34-10.41,40.61h-38.78ZM938.73,191.08l-17.35-75.53-17.35,75.53h34.7Z"/>
    <path class="cls-1" d="M512.18,268.63l52.94-192.99,48.91-.7,53.26,191.64h-40.82l-10.48-38.51-53.59-.39-12.47,40.94h-37.76ZM608.1,193.12l-19.39-75.53-17.35,75.53h36.74Z"/>
    <polygon class="cls-1" points="1094.86 72.71 1131.59 221.71 1170.37 72.71 1208.12 72.71 1154.87 266.39 1109.37 266.72 1057.1 72.71 1094.86 72.71"/>
    <path class="cls-1" d="M1289.21,201.26l17.88,66.09-12.65-.45-4.02-13.64-19.02-.62-2.2,13.55-13.54,1.15,17.3-65.1,16.25-.99ZM1287.15,241.1c-2.18-7-3.09-14.55-5.2-21.56-.42-1.41-.08-3.26-2.13-3.63-.39,8.52-2.87,17.01-5.26,25.18h12.59Z"/>
    <path class="cls-1" d="M1353.3,216.95l-11.55,2.11c1.11-10.65-17.56-10.2-15.76.46,1.35,7.97,26.11,9.39,28.28,23.22,4.6,29.29-37.26,34.55-41.88,7.87l9.98-2.98c2.07.38,1.22,10.03,11.48,9.27,5.95-.44,9.96-5.82,7.34-11.6-2.73-6.03-25.08-7.18-27.54-21.78-4.58-27.12,35.89-32.35,39.64-6.58Z"/>
    <path class="cls-1" d="M1244.8,205.77c1.48,1.58,6.02,9.68,4.57,11.18l-10.44,2.08c-2.72-14.84-23.89-4.67-12.61,4.7,8.08,6.71,25.12,6.27,26.23,22.11,1.89,26.82-39.66,29.93-43.05,4.74l11.51-3.2c-.28,12.51,20.64,12.4,18.94.59-1.13-7.87-22.81-9.68-27.07-20.26-8.71-21.65,18-36.83,31.92-21.95Z"/>
  </g>
  <g>
    <path class="cls-1" d="M282.26,161.59c.84-2.71,15.59-5.59,18.54-7.63,5.22-3.62,6.51-12.94,13.94-17.3,14.9-8.74,64-18.37,81.89-19.43,7.89-.47,20.76-2.2,23.26,7.2-33.64,2.43-65.52,12.1-95.72,26.72-14.3,6.92-27.66,15.68-41.91,22.68v-12.24Z"/>
    <path class="cls-1" d="M274.66,162.01v16.04l-29.55,16.89v-21.95c9.66-4.58,18.11-11.65,29.55-10.98Z"/>
    <path class="cls-1" d="M296.37,149.1c-.81.6-17.39,6.42-18.97,6.78-3.42.78-8.82-.16-12.91.6-6.42,1.2-14.57,9.78-20.22,8.52-1.82-.4-10.38-4.26-10.65-5.91.3-4.8,1.79-8.42,4.06-12.54,1.14-2.06,3.97-4.73,4.52-6.45,1.43-4.48-1.4-8.25,2.87-12.33,3.68-3.51,9.32-2.66,13.49-5.56l.05-4.54c1.98-.76,11.9-3.78,12.66-.8l-2.52,5.43,12.65,3.38c-.89-7.75,9.48-6.56,11.43-8.42,2.49-2.38-.45-7.12-2.97-8.46l-.43,4.22-8.86-8.44c-1.59,4.63,2.27,5.78,3.25,8.14,1.53,3.71-3.18,1.23-4.51-.56-1.45-1.96-1.69-5.62-3.23-7.33-1.01-1.13-10-5.9-10.72-5.31.92,3.88,12.53,9.29,9.72,13.51-2.45,2.34-3.8-2.38-5.53-3.78-2.39-1.93-6.12-2.55-8.85-3.82-.78,2.2,2.56,4.76,3.81,6.33l-2.55.88c-2.25-.96-3.39-9.07-7.58-8.9,1.12,3.16-1.62,5.61-1.77,8.01-.29,4.55,4.38,10.57-3.71,11.43-10.96,1.16-9.67-7.67-13.94-14.78,2.48-2.92,6.17-.17,9.29-.44-.19-6.68-10.22-5.53-8.44-13.51-.83-.89-9.75,6.8-10.8-2.3-.19-1.67.69-10.71,2.05-11.14,5.58-.27,8.51,5.83,13.55,7.42l1.84-1.28-.82-6.95c-1.91-1.61-9.78,3.77-13.31-3.16-1.45-2.85-.59-5.17-1.33-7.96-.65-2.43-6.59-13.52-3.28-14.35,3.46-.59,6.37.74,9.53,1.35.87.17,2.77,1.1,2.57-.46-10.87-6.33-22.69-11.37-35.27-13.29-9.28-1.42-43.81-2.67-50.81,2.76-1.85,1.44-3.65,5.59-6.78,6.71,4.48,4.13,10.44,3.62,15.99,4.62.09-.97,0-2.27.85-2.94,2.16-1.69,27.52-1.73,31.69-1.26,12.53,1.41,14.08,11.62,4.59,18.94-2.17,1.67-8.57,4.25-9.84,5.77-2.31,2.79-.93,8.12-8.47,5.03-6.87-2.81-3.3-12.9-4.64-18.14-.77-3.01-5.67-8.66-8.31-4.31,2.22,5.64,3.58,7.52,1.06,13.54-2.22,5.28-9.87,7.88-13.53,3.06l.65-5.25c-2.16-1.14-6.35-.96-8.33.4-.94.64-1.11,2.41-2.3,2.81-2.39.82-4.08-1.49-8.63.62-8.73,4.04-1.4,10.6-1.77,17.2,4.76-3.35,9.72-6.93,13.5-11.4,1.43-1.68,1.73-5.29,4.51-4.56,2.4.63,2.55,6.06,5.14,7.57,1.85,1.08,3.89.46,4.58.9.41.26.74,2.98,1.45,4.04,2.42,3.6,4.64,4.45,4.58,10.19-1.3,1.1-6.2-2.4-5.9.42,1.88,1.13,3.36,2.95,5.13,4.16,1.53,1.05,5.33.68,4.15,3.44-.89,2.07-13.18,2.43-13.54-1.69l2.57-4.63c-3.9-.38-9.56.05-9.24,5.01,2.17.77,4.35,1.57,6.53,2.36.61.22,2.67-.07,1.86,1.47-.74,1.42-8.98,3.54-10.81,3.63-3.46.17-5.33-1.35-9.31-.09-.58.18-8.54,5.66-9.04,6.15-1.79,1.77-1.54,4.76-3.71,7.26-4.22,4.87-11.58,3.2-12.54,11.12-.3,2.46,2.39,8.24-1.22,9.8-7.57,3.25-.68-8.43-4.36-11.34-2.55-1.56-5.6-.31-8.36-.93-1.86-.42-2.82-2.3-5.24-2.44-7.37-.44-12.45,18.72-6.13,22.26,3.86,2.16,2.95-.92,4.36-1.98,2.31-1.74,6.32-.61,8.95.07.5,3.12-2.7,4.14-4.09,6.44-4.46,7.35,2.89,6.24,3.97,10.2.93,3.42-5.8,9.67,3.46,12.52,8.7,2.68,11.08-2.13,17.28-1.28,2.36.33,4.61,2.38,7.06,3.1,3.74,1.11,8.1.5,11.21,1.46,1.98.61,6.43,5.5,8.97,7.08,3.89,2.42,9.03,3.47,12.51,6.07,4.57,3.42,6.05,9.65,10.62,13.03,3.27,2.41,7.02,2.93,10.81,3.97l.1,4.95c-15.34,1-16.77,7.42-15.1,21.44.53,4.43,2.97,7.43,4.12,11.49l-4.95.12-.96,3.25,11.82,2.12c-7.86,3.1-6.18,19.87-16.87,15.62l1.57,3.11c-2.93,7.78-15.89.16-12.39,11.5.64,2.08,4.22,2.57,4.9,4.79-15.84,2.77-21.12-8.7-24.24-21.77-1.65-6.92-1.56-14.2-2.98-20.66-1.25-5.67-10.15-10.53-14.13-15.42-1.59-1.95-12.17-17.48-12.5-18.77-.28-1.08.5-10.29.83-11.44.6-2.1,4.83-3.83,5.56-7.1.36-1.58.53-8.59-.19-9.59-7.85-.74-9.73-4.11-13.3-10.34-1.06-1.85-1.09-4.09-2.37-6.08-3.1-4.8-11.57-11.36-14.74-15.66-4.78-6.48-2.94-18.61-2.17-26.12l-2.53,6.75c-1.24-.24-2.42-3.79-2.51-4.71-.32-3.26,4.2-21.54,5.47-25.68,3.4-11.12,10.86-19.49,18.98-27.45l10.15-13.06c-47.29,33.51-62.5,95.97-43.07,149.88,31.67,87.87,146.61,114.79,212.37,47.69,1.01-1.28-3.87-1.66-4.23-1.68-11.01-.78-22.54.03-33.66-1.8l-21.63-4.11,170.54-9.3-1.25-1.69c-9.31-.23-18.6-.51-27.91-.81-43.23-1.37-82.94,4.48-125.78,6.71-16.29.85-32.7.73-48.96,1.29-4.51-1.26-9.92-20.64-7.63-24.11,76.33-18.1,136.53-75.94,213.21-92.43,14.92-3.21,38.44-7.28,53.03-3.19,3.63,1.02,6.82,2.1,6.81,6.58,0,4.87-21.76,34.6-25.89,41.53-6.69,11.23-23.06,41.15-19.41,53.7,2.13,7.32,26.18,8.19,32.74,13.7,1.03.87,1.06.79,0,1.66-4.8,3.95-18.93,7.12-25.31,8.47-38.52,8.16-76.79,6.56-115.93,5.65-45.04,51.46-120.37,65.39-180.45,31.5C19.33,244.24,14.19,109.79,101.65,51.06c79.78-53.58,187.36-13.69,216.81,75.94-6.14,2.73-10.3,5.35-14.59,10.6-1.84,2.25-6.16,10.52-7.49,11.5ZM247.64,80.11c.21-3.35-2.47-5.93-5.05-7.6l1.69,5.91-2.54.84,5.9.85Z"/>
    <path class="cls-1" d="M191.07,178.48l8.46-3.36c1.84-1.53.04-5.25,1.24-7.2.69-1.12,7.85-4.41,9.59-5.18l1.1-9.04,5.27-.17,1.47,10.91,20.99,5.6c-5.94,5.2-16.33,7.97-22.25,12.37-.88.65-3.08,2.83-3.08,3.68v13.51c0,.15,1.14,1.33,1.69,1.27v-14.35c9-2.43,16.38-9.25,26.17-7.6v17.31c-8.37,5.69-18.72,10.14-28.14,14.08-2.91,1.22-22.36,9.28-23.36,8.3.45-3.3-.74-8.22.17-11.23.42-1.41,2.4-2.3,3.1-3.65,1.95-3.73.53-8.88.95-12.99h-3.38s0-12.24,0-12.24Z"/>
    <path class="cls-1" d="M128.59,167.92l-10.19-.36c-1.69-1.17,1.12-4.61-3.97-6.15-1.4-.42-3.4.06-4.45-.63-.85-.55-.82-2.83-2.02-3.89-1.71-1.51-6.74-1.66-7.23-5.42,4.84-4.27,5.54-.41,9.01,1.95,4.57,3.11,10.92,6.11,15.05,9.43.69.55,4.74,4.27,3.8,5.06Z"/>
    <path class="cls-1" d="M205.24,71.84c8.57-1.17,12.2,6.29,3.97,6.64-6.28.27-12.32-5.5-3.97-6.64Z"/>
  </g>
</svg>