<?xml version="1.0" encoding="UTF-8"?>
<svg id="Capa_1" data-name="Capa 1" xmlns="http://www.w3.org/2000/svg" viewBox="0 0 500 500">
  <defs>
    <style>
      .cls-1 {
        fill: #fff;
      }
    </style>
  </defs>
  <path class="cls-1" d="M297.42,239.36c1-3.2,18.38-6.59,21.87-9,6.16-4.26,7.68-15.26,16.44-20.4,17.57-10.31,75.48-21.66,96.58-22.92,9.31-.55,24.48-2.59,27.44,8.5-39.68,2.87-77.28,14.27-112.9,31.52-16.86,8.17-32.63,18.49-49.44,26.75v-14.44Z"/>
  <path class="cls-1" d="M288.45,239.86v18.92l-34.86,19.92v-25.89c11.39-5.4,21.37-13.74,34.86-12.95Z"/>
  <path class="cls-1" d="M314.06,224.63c-.96.71-20.51,7.57-22.38,8-4.03.92-10.4-.19-15.23.71-7.58,1.42-17.18,11.53-23.85,10.05-2.14-.48-12.25-5.02-12.56-6.97.36-5.66,2.11-9.93,4.78-14.79,1.34-2.44,4.69-5.58,5.33-7.61,1.68-5.28-1.65-9.73,3.39-14.54,4.34-4.14,11-3.14,15.91-6.55l.06-5.35c2.34-.89,14.04-4.45,14.94-.94l-2.98,6.41,14.92,3.99c-1.05-9.14,11.18-7.74,13.48-9.93,2.94-2.81-.53-8.39-3.5-9.98l-.5,4.97-10.45-9.95c-1.88,5.46,2.68,6.82,3.83,9.61,1.81,4.37-3.75,1.45-5.32-.66-1.71-2.31-1.99-6.63-3.8-8.65-1.2-1.33-11.79-6.96-12.64-6.27,1.08,4.57,14.78,10.96,11.47,15.94-2.89,2.76-4.48-2.81-6.52-4.46-2.82-2.27-7.22-3.01-10.43-4.51-.92,2.6,3.02,5.62,4.49,7.46l-3,1.04c-2.66-1.13-3.99-10.69-8.94-10.5,1.32,3.73-1.91,6.61-2.09,9.44-.34,5.37,5.16,12.47-4.38,13.48-12.93,1.37-11.41-9.04-16.45-17.43,2.92-3.44,7.27-.2,10.95-.52-.23-7.88-12.06-6.52-9.96-15.93-.98-1.05-11.5,8.02-12.74-2.71-.23-1.97.82-12.63,2.42-13.14,6.58-.31,10.03,6.88,15.98,8.75l2.17-1.51-.97-8.19c-2.25-1.9-11.54,4.44-15.7-3.73-1.71-3.36-.7-6.1-1.57-9.39-.76-2.87-7.78-15.94-3.87-16.92,4.08-.7,7.51.87,11.24,1.6,1.02.2,3.27,1.3,3.03-.55-12.82-7.47-26.76-13.41-41.6-15.67-10.95-1.67-51.67-3.15-59.93,3.26-2.19,1.7-4.3,6.59-7.99,7.92,5.28,4.88,12.32,4.27,18.86,5.45.11-1.14,0-2.68,1-3.47,2.54-1.99,32.46-2.04,37.38-1.49,14.78,1.67,16.61,13.71,5.41,22.34-2.56,1.97-10.11,5.01-11.6,6.81-2.72,3.29-1.1,9.58-9.99,5.94-8.1-3.32-3.9-15.21-5.48-21.4-.91-3.55-6.68-10.22-9.8-5.08,2.62,6.65,4.23,8.87,1.25,15.97-2.61,6.23-11.64,9.3-15.96,3.61l.77-6.19c-2.55-1.35-7.49-1.13-9.82.47-1.1.76-1.31,2.84-2.71,3.32-2.81.97-4.81-1.75-10.18.73-10.3,4.76-1.65,12.5-2.09,20.29,5.61-3.95,11.46-8.17,15.93-13.44,1.68-1.99,2.04-6.24,5.31-5.38,2.84.74,3.01,7.15,6.06,8.93,2.18,1.27,4.59.55,5.4,1.07.48.31.88,3.51,1.72,4.76,2.86,4.25,5.48,5.25,5.4,12.02-1.53,1.3-7.31-2.83-6.96.49,2.22,1.33,3.96,3.48,6.05,4.91,1.8,1.24,6.29.8,4.89,4.06-1.05,2.45-15.54,2.86-15.97-1.99l3.03-5.46c-4.6-.44-11.28.06-10.9,5.91,2.56.91,5.14,1.85,7.7,2.79.72.26,3.15-.08,2.2,1.74-.88,1.67-10.59,4.17-12.75,4.28-4.08.2-6.29-1.59-10.99-.11-.68.21-10.07,6.67-10.66,7.26-2.12,2.09-1.82,5.61-4.38,8.57-4.97,5.75-13.65,3.78-14.79,13.12-.35,2.9,2.82,9.72-1.44,11.55-8.93,3.84-.8-9.94-5.14-13.37-3.01-1.84-6.61-.37-9.85-1.1-2.2-.49-3.32-2.71-6.18-2.88-8.69-.52-14.68,22.08-7.23,26.26,4.55,2.55,3.48-1.09,5.14-2.33,2.72-2.05,7.46-.72,10.56.08.59,3.68-3.18,4.89-4.82,7.6-5.26,8.66,3.41,7.36,4.68,12.03,1.1,4.04-6.85,11.4,4.08,14.76,10.26,3.16,13.07-2.52,20.39-1.51,2.79.38,5.44,2.81,8.33,3.66,4.42,1.31,9.56.59,13.22,1.72,2.33.72,7.59,6.49,10.58,8.35,4.59,2.85,10.66,4.09,14.75,7.16,5.39,4.03,7.13,11.39,12.52,15.36,3.86,2.85,8.28,3.46,12.75,4.68l.12,5.84c-18.09,1.18-19.78,8.76-17.81,25.29.62,5.22,3.51,8.76,4.86,13.55l-5.84.14-1.13,3.84,13.95,2.5c-9.27,3.66-7.29,23.43-19.9,18.43l1.85,3.67c-3.45,9.17-18.75.19-14.62,13.57.76,2.45,4.98,3.03,5.78,5.65-18.68,3.27-24.91-10.26-28.59-25.68-1.94-8.16-1.84-16.75-3.51-24.37-1.47-6.68-11.97-12.43-16.67-18.18-1.87-2.3-14.35-20.62-14.75-22.14-.33-1.27.59-12.14.98-13.49.71-2.47,5.69-4.52,6.56-8.38.42-1.87.63-10.13-.22-11.31-9.26-.87-11.47-4.84-15.69-12.2-1.25-2.18-1.28-4.82-2.79-7.17-3.65-5.66-13.64-13.4-17.38-18.47-5.64-7.64-3.47-21.95-2.56-30.81l-2.99,7.96c-1.47-.28-2.86-4.47-2.96-5.56-.38-3.85,4.95-25.4,6.45-30.3,4.01-13.12,12.81-22.99,22.39-32.38l11.97-15.41c-55.77,39.52-73.72,113.19-50.8,176.79,37.36,103.64,172.93,135.4,250.48,56.25,1.19-1.5-4.56-1.95-4.99-1.98-12.99-.92-26.59.04-39.7-2.13l-25.52-4.84,201.16-10.97-1.47-1.99c-10.98-.28-21.94-.6-32.92-.95-50.99-1.62-97.82,5.28-148.35,7.92-19.22,1-38.57.86-57.75,1.52-5.32-1.49-11.7-24.35-9-28.44,90.03-21.35,161.04-89.57,251.49-109.02,17.59-3.78,45.34-8.59,62.55-3.77,4.28,1.2,8.04,2.47,8.03,7.76-.01,5.75-25.67,40.81-30.54,48.99-7.89,13.25-27.2,48.54-22.89,63.34,2.51,8.64,30.88,9.66,38.62,16.16,1.22,1.02,1.25.93,0,1.96-5.66,4.66-22.32,8.39-29.85,9.99-45.43,9.62-90.57,7.74-136.74,6.67-53.12,60.69-141.98,77.12-212.84,37.16C-12.71,336.85-18.77,178.26,84.38,108.99c94.1-63.2,220.99-16.15,255.72,89.58-7.25,3.22-12.14,6.31-17.21,12.5-2.17,2.66-7.26,12.41-8.83,13.57ZM256.58,143.26c.24-3.95-2.91-7-5.96-8.96l1.99,6.97-2.99.99,6.96,1.01Z"/>
  <path class="cls-1" d="M189.86,259.28l9.97-3.97c2.17-1.81.05-6.19,1.46-8.5.81-1.32,9.25-5.2,11.31-6.11l1.3-10.66,6.22-.2,1.73,12.87,24.76,6.6c-7.01,6.13-19.26,9.4-26.24,14.59-1.03.77-3.63,3.34-3.63,4.33v15.93c0,.17,1.34,1.57,1.99,1.49v-16.93c10.61-2.87,19.32-10.91,30.87-8.96v20.42c-9.87,6.71-22.08,11.95-33.19,16.61-3.44,1.44-26.37,10.95-27.56,9.79.53-3.89-.87-9.69.2-13.25.5-1.66,2.83-2.72,3.66-4.31,2.31-4.4.62-10.47,1.13-15.32h-3.99s0-14.43,0-14.43Z"/>
  <path class="cls-1" d="M116.16,246.83l-12.01-.42c-2-1.37,1.32-5.44-4.68-7.26-1.66-.5-4.02.07-5.25-.74-1-.65-.97-3.34-2.38-4.59-2.01-1.78-7.96-1.96-8.53-6.39,5.71-5.03,6.53-.48,10.63,2.3,5.39,3.67,12.88,7.21,17.75,11.13.81.65,5.59,5.03,4.48,5.97Z"/>
  <path class="cls-1" d="M206.57,133.5c10.11-1.38,14.39,7.42,4.69,7.83-7.41.32-14.53-6.49-4.69-7.83Z"/>
</svg>